<?xml version="1.0" standalone="no"?><!DOCTYPE svg PUBLIC "-//W3C//DTD SVG 1.1//EN" "http://www.w3.org/Graphics/SVG/1.1/DTD/svg11.dtd"><svg t="1587633807658" class="icon" viewBox="0 0 1024 1024" version="1.1" xmlns="http://www.w3.org/2000/svg" p-id="4335" xmlns:xlink="http://www.w3.org/1999/xlink" width="200" height="200"><defs><style type="text/css"></style></defs><path d="M511.448178 302.08c0.551822-64.273067 0-128.551822 0.551822-192.864711h131.424711c-0.585956 11.4176 1.143467 22.761244 2.838756 33.592889H549.535289v522.24a124.814222 124.814222 0 0 1-15.911822 63.687111 107.872711 107.872711 0 0 1-83.057778 52.935111 111.377067 111.377067 0 0 1-63.140978-13.118578 108.384711 108.384711 0 0 1-37.0176-32.961422c33.592889 18.744889 77.391644 17.0496 109.841067-3.982222A111.655822 111.655822 0 0 0 512 638.270578c-0.551822-112.054044-0.551822-224.1024-0.551822-336.190578z m216.735289-36.977778c18.198756 11.377778 38.678756 20.48 59.744711 25.042489 12.487111 2.838756 25.014044 3.9424 38.087111 3.9424V323.697778a187.312356 187.312356 0 0 1-97.792-58.646756l-0.039822 0.039822z" fill="#25F4EE" p-id="4336"></path><path d="M274.784711 428.942222A238.000356 238.000356 0 0 1 434.062222 395.377778v31.277511c-14.705778 0.580267-29.348978 2.292622-43.793066 5.12a249.457778 249.457778 0 0 0-97.871645 43.832889c-31.271822 23.318756-55.136711 55.1424-71.68 90.430578a243.399111 243.399111 0 0 0-23.318755 108.111644c0 40.96 11.423289 80.736711 30.72 116.576711 9.102222 16.5376 19.342222 32.449422 33.006933 45.528178a233.432178 233.432178 0 0 1-68.255289-75.070578 246.272 246.272 0 0 1-33.592889-131.424711 250.129067 250.129067 0 0 1 35.84-120.041244 240.327111 240.327111 0 0 1 79.672889-80.7424V428.942222z" fill="#25F4EE" p-id="4337"></path><path d="M549.535289 142.808178h97.28c3.424711 18.750578 10.24 36.391822 18.784711 53.447111 13.6704 26.191644 33.006933 49.504711 58.015289 64.864711 1.592889 1.024 2.952533 2.383644 3.982222 3.982222a186.680889 186.680889 0 0 0 98.4576 58.595556c0.551822 34.1504 0 68.846933 0 102.957511A308.144356 308.144356 0 0 1 645.12 369.191822c0 81.92 0 163.84 0.551822 245.76 0 10.831644 0.591644 21.663289 0 33.006934a268.8 268.8 0 0 1-35.248355 113.8176 247.415467 247.415467 0 0 1-68.255289 77.351822 219.295289 219.295289 0 0 1-124.609422 42.655289c-22.766933 0.551822-45.494044-0.591644-67.703467-5.711645a243.552711 243.552711 0 0 1-87.04-38.081422l-1.695289-1.735111a202.439111 202.439111 0 0 1-33.001244-45.488356 244.337778 244.337778 0 0 1-30.72-116.622222 245.0944 245.0944 0 0 1 23.313066-108.111644c16.543289-35.248356 40.96-67.106133 71.68-90.424889A249.457778 249.457778 0 0 1 434.062222 426.655289c0.591644 13.112889 0 26.191644 0.591645 38.712889v66.56a94.128356 94.128356 0 0 0-51.791645-1.735111 128.159289 128.159289 0 0 0-55.728355 27.335111 101.848178 101.848178 0 0 0-23.904711 30.128355c-10.24 19.342222-13.664711 42.103467-11.377778 63.726934 2.275556 21.031822 11.377778 41.511822 25.042489 57.457777 9.056711 11.383467 21.031822 19.894044 32.967111 27.886934 9.688178 13.624889 22.209422 25.008356 37.0176 32.967111a116.286578 116.286578 0 0 0 63.135289 13.112889c34.110578-2.281244 65.968356-23.352889 83.023644-52.935111a124.814222 124.814222 0 0 0 15.951645-63.721245c1.137778-175.183644 0.551822-349.263644 0.551822-523.343644z" fill="#FFFFFF" p-id="4338"></path><path d="M646.815289 142.808178c11.423289 0.551822 22.761244 0 34.702222 0 0 38.087111 11.969422 76.208356 34.139022 107.52 2.838756 3.9424 5.711644 7.367111 8.5504 10.791822-25.048178-15.36-44.942222-38.673067-58.055111-64.864711a214.249244 214.249244 0 0 1-19.296711-53.447111h-0.039822z m179.2 180.895289c12.521244 2.833067 25.048178 3.982222 38.121244 3.982222v132.562489c-64.864711 0.551822-129.6896-21.065956-182.624711-59.192889v262.855111c0.682667 19.876978-1.223111 39.765333-5.671822 59.153067a244.303644 244.303644 0 0 1-96.728178 147.342222 236.743111 236.743111 0 0 1-86.448355 38.673067 240.401067 240.401067 0 0 1-113.777778-1.695289 239.775289 239.775289 0 0 1-115.484445-69.393067 233.984 233.984 0 0 0 87.04 38.081422c22.175289 5.12 44.9024 6.303289 67.709156 5.711645a219.295289 219.295289 0 0 0 124.5696-42.6496c27.886933-20.48 50.648178-47.263289 68.255289-77.391645a268.8 268.8 0 0 0 35.288178-113.783466c0.568889-10.996622 0.568889-22.016 0-33.006934-0.591644-81.92-0.591644-163.84-0.591645-245.76a308.144356 308.144356 0 0 0 180.935111 57.503289c-0.591644-34.144711 0-68.846933-0.591644-102.991644z" fill="#FE2C55" p-id="4339"></path><path d="M434.648178 426.097778c12.487111 0 25.6 0.557511 38.087111 2.286933v135.958756a103.856356 103.856356 0 0 0-57.457778-2.286934c-35.84 7.958756-65.974044 35.288178-78.500978 69.9904-12.521244 34.104889-7.401244 73.961244 14.222223 102.951823a119.569067 119.569067 0 0 1-33.006934-27.886934 107.286756 107.286756 0 0 1-25.008355-57.423644c-2.286933-21.663289 1.137778-44.384711 11.377777-63.721245 5.677511-11.423289 14.1824-21.663289 23.870578-30.168177 15.951644-13.630578 35.84-22.175289 55.768178-27.295289 17.066667-4.283733 34.998044-3.697778 51.751822 1.695289v-66.56c-1.103644-11.383467-0.551822-24.4224-1.103644-37.535289z" fill="#FE2C55" p-id="4340"></path></svg>