<?xml version="1.0" standalone="no"?><!DOCTYPE svg PUBLIC "-//W3C//DTD SVG 1.1//EN" "http://www.w3.org/Graphics/SVG/1.1/DTD/svg11.dtd"><svg t="1589899402515" class="icon" viewBox="0 0 1024 1024" version="1.1" xmlns="http://www.w3.org/2000/svg" p-id="14726" xmlns:xlink="http://www.w3.org/1999/xlink" width="200" height="200"><defs><style type="text/css"></style></defs><path d="M716.8 211.2h268.8c19.2 0 38.4-19.2 38.4-38.4s-19.2-38.4-38.4-38.4h-268.8c-19.2 0-38.4 19.2-38.4 38.4s19.2 38.4 38.4 38.4zM390.4 243.2c-12.8-12.8-38.4-12.8-51.2 0-12.8 12.8-12.8 38.4 0 51.2l134.4 134.4v6.4H364.8c-19.2 0-38.4 19.2-38.4 38.4 6.4 19.2 19.2 38.4 38.4 38.4h108.8v70.4H364.8c-19.2 0-38.4 19.2-38.4 38.4s19.2 38.4 38.4 38.4h108.8V768c0 19.2 19.2 38.4 38.4 38.4s38.4-19.2 38.4-38.4v-108.8h108.8c19.2 0 38.4-19.2 38.4-38.4s-19.2-38.4-38.4-38.4H550.4V512h108.8c19.2 0 38.4-19.2 38.4-38.4s-19.2-38.4-38.4-38.4H550.4l134.4-140.8c12.8-12.8 12.8-38.4 0-51.2-12.8-12.8-38.4-12.8-51.2 0L518.4 364.8l-128-121.6zM985.6 473.6z" p-id="14727"></path><path d="M1024 512c0-19.2-19.2-38.4-38.4-38.4s-32 19.2-32 38.4c0 243.2-198.4 441.6-441.6 441.6-243.2 0-441.6-198.4-441.6-441.6 0-243.2 198.4-441.6 441.6-441.6h12.8c19.2 0 38.4-19.2 38.4-38.4 0-12.8-19.2-32-38.4-32H512C230.4 0 0 230.4 0 512s230.4 512 512 512 512-230.4 512-512v-25.6 25.6z" p-id="14728"></path></svg>