<?xml version="1.0" standalone="no"?><!DOCTYPE svg PUBLIC "-//W3C//DTD SVG 1.1//EN" "http://www.w3.org/Graphics/SVG/1.1/DTD/svg11.dtd"><svg t="1589899291796" class="icon" viewBox="0 0 1024 1024" version="1.1" xmlns="http://www.w3.org/2000/svg" p-id="13691" xmlns:xlink="http://www.w3.org/1999/xlink" width="200" height="200"><defs><style type="text/css"></style></defs><path d="M575.2 436.67h118.626a39.385 39.385 0 1 1 0 78.77H564.513v77.298h129.313a39.385 39.385 0 1 1 0 78.77H564.513V800.82a39.385 39.385 0 0 1-78.77 0V671.508H356.432a39.385 39.385 0 1 1 0-78.77h129.313V515.44H356.43a39.385 39.385 0 1 1 0-78.77h125.952a39.568 39.568 0 0 1-6.144-5.015l-128.237-128.21a39.385 39.385 0 0 1 55.717-55.716l124.534 124.534L648.69 251.825a39.385 39.385 0 1 1 55.69 55.69L576.17 435.751a40.12 40.12 0 0 1-0.972 0.92z" p-id="13692"></path><path d="M512 13.128C236.491 13.128 13.128 236.491 13.128 512S236.491 1010.872 512 1010.872 1010.872 787.509 1010.872 512c0-36.418-3.912-72.363-11.58-107.389a39.385 39.385 0 1 0-76.93 16.91c6.459 29.46 9.74 59.733 9.74 90.479 0 232.028-188.074 420.103-420.102 420.103S91.897 744.028 91.897 512 279.972 91.897 512 91.897a39.385 39.385 0 0 0 0-78.769z" p-id="13693"></path><path d="M787.692 131.282V65.641a39.385 39.385 0 0 1 78.77 0v65.641h65.64a39.385 39.385 0 0 1 0 78.77h-65.64v65.64a39.385 39.385 0 0 1-78.77 0v-65.64h-65.64a39.385 39.385 0 0 1 0-78.77h65.64z" p-id="13694"></path></svg>