<?xml version="1.0" standalone="no"?><!DOCTYPE svg PUBLIC "-//W3C//DTD SVG 1.1//EN" "http://www.w3.org/Graphics/SVG/1.1/DTD/svg11.dtd"><svg t="1589883336797" class="icon" viewBox="0 0 1024 1024" version="1.1" xmlns="http://www.w3.org/2000/svg" p-id="6271" xmlns:xlink="http://www.w3.org/1999/xlink" width="200" height="200"><defs><style type="text/css"></style></defs><path d="M499.968 111.616c106.24 0 206.336 41.472 281.6 116.48 75.264 75.264 116.48 175.104 116.48 281.6s-41.472 206.336-116.48 281.6c-75.264 75.264-175.104 116.48-281.6 116.48s-206.336-41.472-281.6-116.48c-75.264-75.264-116.48-175.104-116.48-281.6s41.472-206.336 116.48-281.6 175.104-116.48 281.6-116.48m0-30.72c-236.8 0-428.8 192-428.8 428.8s192 428.8 428.8 428.8 428.8-192 428.8-428.8-192-428.8-428.8-428.8z" p-id="6272"></path><path d="M404.736 298.24c-47.36 6.4-65.536 8.704-108.032 11.264-2.816-12.288-5.888-20.48-12.288-30.72 65.536-1.536 128.512-9.216 192.512-22.528 22.528-5.376 35.584-9.216 46.848-14.592l25.344 29.44c-9.728 1.536-9.728 1.536-24.832 5.376-31.744 6.912-61.696 12.8-87.04 16.64V345.6h94.72c21.504 0 31.744-0.512 43.52-2.56v32.768c-12.288-1.536-24.064-2.048-44.032-2.048h-93.952v156.928c57.6 45.056 89.344 73.728 124.16 112.384l-26.368 24.32c-32.256-41.984-52.224-62.464-97.792-103.168v114.944c0 24.32 0.512 37.632 3.328 52.224h-38.656c2.048-14.08 3.328-27.904 3.328-51.712V616.96c0-16.64 0.512-30.72 1.536-45.568-36.096 52.224-70.4 83.2-131.584 120.32-6.4-12.8-11.776-19.456-21.504-28.928 66.56-33.28 116.224-77.312 151.552-133.888v-155.392h-91.392c-22.528 0-34.816 0.512-47.36 2.816v-33.28c12.8 2.048 23.552 2.56 46.848 2.56h91.904v-47.36z m-65.536 123.136c0-14.08-0.512-22.528-2.816-31.744h32.768c-1.536 9.216-2.048 17.152-2.048 31.744v101.12c0 16.64 0.512 24.832 2.048 35.584h-32.768c1.536-7.936 2.816-18.176 2.816-31.744-16.64 7.936-25.344 11.264-53.76 22.016-3.328 1.024-8.704 3.84-12.288 5.376l-10.752-31.744c25.344-3.328 45.568-9.728 76.8-23.552v-46.336h-27.392c-19.456 0-32.256 0.512-43.008 2.816v-31.744c10.752 2.048 21.504 2.56 43.008 2.56h27.392v-4.352z m158.976 28.416c26.88-14.08 47.36-27.904 59.136-41.472l20.992 22.528c-7.424 4.352-7.424 4.352-25.856 16.128-15.104 9.728-38.144 21.504-54.272 28.928v31.232c0 14.08 4.352 16.64 27.904 16.64 13.568 0 17.664-1.024 20.48-6.4 2.56-4.864 4.352-17.664 4.352-30.72v-8.704c10.24 6.912 15.616 10.24 26.88 14.08-1.536 20.48-4.352 32.256-9.728 41.984-6.4 12.288-16.64 15.616-45.568 15.616-42.496 0-51.712-6.912-51.712-38.656v-90.88c0-13.568-0.512-20.992-2.048-32.768h31.744c-1.536 11.264-2.048 18.176-2.048 32.768v29.696z m135.936-179.968c-2.048 16.128-2.56 32.256-2.56 58.624v212.224c0 29.44 0.512 44.544 2.56 60.16H596.48c1.536-16.128 2.56-32.256 2.56-60.16v-211.712c0-24.832-1.024-41.472-3.328-59.136h38.4z m94.72-22.784c-2.56 17.664-3.328 35.584-3.328 65.024v356.864c0 38.656-11.264 46.848-62.976 46.848-15.616 0-28.928-0.512-53.248-2.048-2.048-14.08-4.352-22.528-9.728-34.816 26.88 4.352 48.384 5.888 66.56 5.888 22.528 0 26.368-2.048 26.368-16.128v-355.84c0-31.232-1.024-48.896-3.328-65.536h39.68z" p-id="6273"></path></svg>