<?xml version="1.0" standalone="no"?><!DOCTYPE svg PUBLIC "-//W3C//DTD SVG 1.1//EN" "http://www.w3.org/Graphics/SVG/1.1/DTD/svg11.dtd"><svg t="1589898118750" class="icon" viewBox="0 0 1325 1024" version="1.1" xmlns="http://www.w3.org/2000/svg" p-id="9554" xmlns:xlink="http://www.w3.org/1999/xlink" width="258.7890625" height="200"><defs><style type="text/css"></style></defs><path d="M1321.359698 338.341647c-23.130353 34.575059-61.379765 54.874353-104.327529 55.838118-10.601412 15.179294-27.527529 30.72-54.452706 44.272941a213.473882 213.473882 0 0 1-48.850824 17.167059c8.252235 27.467294 12.769882 56.018824 12.769883 85.293176 0 95.713882-46.260706 182.994824-122.75953 250.157177a1012.555294 1012.555294 0 0 1-51.380706 211.546353 32.948706 32.948706 0 0 1-31.141647 21.383529h-139.264a33.129412 33.129412 0 0 1-31.744-42.646588c7.469176-24.877176 14.034824-49.573647 20.239059-74.270118a662.588235 662.588235 0 0 1-279.009882 4.216471 947.501176 947.501176 0 0 1-28.069647 91.075764 33.008941 33.008941 0 0 1-31.141647 21.443765H292.902286a33.129412 33.129412 0 0 1-31.683764-42.646588c14.576941-49.031529 26.383059-97.701647 36.020705-146.010353-57.524706-36.261647-103.966118-82.160941-135.649882-134.144-26.624-1.626353-48.971294-4.758588-63.006118-10.24-74.691765-28.912941-93.605647-137.999059-98.183529-202.029177a44.875294 44.875294 0 0 1 41.682824-47.947294 270.757647 270.757647 0 0 0 92.16-22.467764c23.913412-72.282353 71.378824-134.686118 144.986352-180.464942-38.068706-44.815059-67.584-106.857412-72.82447-155.166117 115.591529-7.649882 231.303529 42.104471 293.406118 82.703059 9.999059-1.264941 19.998118-2.529882 30.418823-3.433412a199.378824 199.378824 0 0 0 198.354824 187.151059 199.258353 199.258353 0 0 0 183.175529-121.675294c83.064471 44.272941 147.877647 107.218824 183.597176 180.585411a165.647059 165.647059 0 0 0 44.995765-14.637176c6.746353-3.252706 12.769882-6.927059 18.010353-10.601412-27.467294-11.504941-50.055529-31.262118-62.283294-55.777882-19.636706-39.574588-5.300706-68.969412 13.131294-82.341647 24.576-17.769412 60.114824-12.830118 84.690824 11.866353 25.660235 25.780706 39.695059 56.199529 39.875764 85.293176 15.480471-3.493647 33.310118-11.926588 46.260706-31.503059a24.696471 24.696471 0 0 1 34.454588-6.927059 25.660235 25.660235 0 0 1 6.866824 34.936471zM322.598286 340.931765a41.622588 41.622588 0 0 0 0 83.245176 41.562353 41.562353 0 1 0 0-83.245176z m836.126118-49.091765a22.467765 22.467765 0 0 0-15.661177-7.830588 8.914824 8.914824 0 0 0-4.758588 1.264941c-2.710588 1.987765-2.891294 9.336471 2.228706 19.395765 7.649882 15.540706 23.853176 28.009412 43.309177 34.394353-1.084235-14.998588-9.999059-31.984941-25.118118-47.224471z m-432.549647-5.662118a142.757647 142.757647 0 0 1-142.396235-143.119058A142.757647 142.757647 0 0 1 726.174757 0a142.637176 142.637176 0 0 1 142.45647 143.058824 142.757647 142.757647 0 0 1-142.45647 143.119058z m56.982588-130.288941a36.623059 36.623059 0 0 0-11.083294-12.830117 54.814118 54.814118 0 0 0-16.203294-8.192 113.844706 113.844706 0 0 0-18.371765-4.577883l-16.444235-2.529882a181.549176 181.549176 0 0 1-12.16753-2.590118 34.755765 34.755765 0 0 1-10.059294-3.493647 10.24 10.24 0 0 1-4.698353-5.300706 10.902588 10.902588 0 0 1-1.084235-6.927059 12.709647 12.709647 0 0 1 3.614118-7.710117 21.443765 21.443765 0 0 1 10.962823-5.481412 58.187294 58.187294 0 0 1 16.564706-1.626353c3.794824 0.180706 7.830588 0.542118 11.806118 1.264941 4.216471 0.542118 7.288471 1.445647 9.456941 2.710588a14.576941 14.576941 0 0 1 5.12 4.758589 44.513882 44.513882 0 0 1 3.312941 8.071529h28.732235l-1.264941-9.697882a26.925176 26.925176 0 0 0-5.842823-12.468706 48.489412 48.489412 0 0 0-11.806118-11.504941 48.067765 48.067765 0 0 0-16.203294-6.927059 97.340235 97.340235 0 0 0-22.226824-2.409412c-8.011294 0-14.938353 0.361412-20.781176 1.626353-5.782588 1.325176-11.444706 3.132235-16.926118 5.903059a44.694588 44.694588 0 0 0-14.757647 12.589176c-4.577882 5.722353-6.927059 13.733647-7.469176 23.792942a52.043294 52.043294 0 0 0 0.722823 10.842352 33.731765 33.731765 0 0 0 3.493647 9.818353 27.708235 27.708235 0 0 0 7.649883 8.794353 38.851765 38.851765 0 0 0 12.890353 6.083765c5.300706 1.445647 10.962824 2.891294 17.347764 4.156235 6.204235 1.505882 12.709647 2.770824 19.636706 4.035765 6.927059 1.325176 12.047059 2.409412 15.661177 3.493647a33.972706 33.972706 0 0 1 8.372706 3.493647 12.047059 12.047059 0 0 1 4.758588 4.577883c1.084235 1.807059 1.626353 3.975529 1.807059 6.746352a16.685176 16.685176 0 0 1-2.168471 9.697883c-1.626353 2.770824-4.758588 4.758588-8.914823 6.023529a56.560941 56.560941 0 0 1-14.938353 2.228706 62.885647 62.885647 0 0 1-19.516236-1.626353 21.263059 21.263059 0 0 1-11.083294-6.445176 18.733176 18.733176 0 0 1-4.397176-8.432941 151.612235 151.612235 0 0 1-1.264941-8.192h-29.334589l1.626353 9.697882a44.574118 44.574118 0 0 0 6.746353 18.311529 43.008 43.008 0 0 0 26.985412 19.33553c4.517647 1.144471 9.999059 1.867294 16.203294 2.228706 6.204235 0.361412 12.167529 0.361412 18.010353 0.180705a119.868235 119.868235 0 0 0 18.612706-1.987764 43.008 43.008 0 0 0 15.661176-6.083765 33.249882 33.249882 0 0 0 11.444706-12.950588 47.826824 47.826824 0 0 0 5.300706-20.720941 37.827765 37.827765 0 0 0-3.493647-19.757177z" p-id="9555"></path></svg>