<?xml version="1.0" standalone="no"?><!DOCTYPE svg PUBLIC "-//W3C//DTD SVG 1.1//EN" "http://www.w3.org/Graphics/SVG/1.1/DTD/svg11.dtd"><svg t="1590649073392" class="icon" viewBox="0 0 1024 1024" version="1.1" xmlns="http://www.w3.org/2000/svg" p-id="3005" xmlns:xlink="http://www.w3.org/1999/xlink" width="200" height="200"><defs><style type="text/css"></style></defs><path d="M698.675763 510.003535h-112.224023v51.497777h118.686039v50.69394h-118.686039v87.69133h-55.120265V409.022793h-2.411511q-18.305565 47.676941-37.414967 81.67299-13.080623-19.913239-30.175213-43.448966v224.902162h-49.890103v-24.532693h-31.380969v32.988643h-50.69394v-349.199403h131.965012v98.7728q35.802073-68.378358 47.071453-127.737037l51.899696 11.666079q-6.639486 22.53354-13.278973 43.047047h163.747899v51.899696h-124.318119v50.292022h112.224023zM411.413582 379.651417h-31.380969v85.290258h31.380969z m-31.380969 219.672001h31.380969V513.224103h-31.380969z" fill="" p-id="3006"></path><path d="M511.841033 1024c-281.786692 0-511.532757-230.643856-511.08386-513.041256C1.216509 226.953669 230.550215-0.219072 516.564882 0.000157c277.167239 0.214009 506.568801 231.833953 506.678415 511.590173 0.099175 282.872395-228.983985 512.41489-511.402264 512.40967z m-1.800804-78.943076c245.112926-2.463709 436.253926-195.139307 433.492693-436.974247-2.735134-239.835787-195.118428-430.627065-432.5949-429.003732-241.547856 1.638993-433.586648 196.496435-430.569649 436.890732 3.00134 238.927555 195.781333 431.446562 429.671856 429.087247z" fill="" p-id="3007"></path></svg>